#!OML:ASF E:\Steps\Project 1\Capture day 1\Session 2\Subject.ASF
:FULLY-SPECIFIED
:DEGREES
401
root 2.78667 17.383 12.1372 -145.81 -10.5274 172.928
lowerback -15.6089 -5.07593 -5.80106
upperback 2.22582 -5.68064 -0.306028
thorax 11.7904 -3.07051 1.45241
lowerneck 11.6974 -5.61984 -6.6901
upperneck 7.83869 -9.82856 10.5154
head 1.27417 -5.46502 4.42525
rclavicle -1.55052e-014 1.55052e-014
rhumerus -43.0711 -9.14464 -74.7756
rradius 38.3044
rwrist -4.65664
rhand -8.14302 -53.9413
rfingers 7.12502
rthumb 17.7712 -83.1492
lclavicle -1.55052e-014 1.55052e-014
lhumerus -23.0407 -17.4434 77.6426
lradius 44.0404
lwrist 4.48939
lhand -24.6916 -14.1408
lfingers 7.12502
lthumb 1.80938 15.8313
rfemur -59.5107 -2.99235 5.70179
rtibia 28.9079
rfoot -8.96218 -7.0031
rtoes -26.7063
lfemur -14.5299 -14.4786 -9.75855
ltibia 25.2517
lfoot 11.8032 2.86069
ltoes -22.2983
402
root 2.82366 17.4232 12.0765 -145.578 -10.4511 172.658
lowerback -15.4501 -5.15306 -5.96141
upperback 2.16873 -5.77224 -0.236768
thorax 11.6664 -3.12556 1.60781
lowerneck 11.7409 -6.82513 -7.30737
upperneck 8.30705 -9.47523 10.5129
head 1.42846 -4.63908 4.52192
rclavicle -5.36719e-015 2.34566e-014
rhumerus -42.675 -8.58571 -74.8435
rradius 38.5288
rwrist -4.97286
rhand -8.13212 -54.214
rfingers 7.12502
rthumb 17.7817 -83.421
lclavicle -5.36719e-015 2.34566e-014
lhumerus -22.6791 -17.4127 77.6602
lradius 44.4004
lwrist 4.66566
lhand -25.2291 -14.7047
lfingers 7.12502
lthumb 1.29034 15.2711
rfemur -59.2115 -2.86228 5.44941
rtibia 28.4455
rfoot -8.9496 -7.22134
rtoes -27.6105
lfemur -15.1789 -14.0867 -10.0798
ltibia 26.0704
lfoot 11.613 2.60729
ltoes -23.7095
403
root 2.85646 17.4629 12.0106 -145.372 -10.5119 172.516
lowerback -15.3979 -5.19724 -5.92291
upperback 2.12968 -5.84961 -0.149396
thorax 11.6043 -3.16089 1.66769
lowerneck 11.9131 -6.78679 -7.3846
upperneck 8.18003 -9.43308 10.4911
head 1.36325 -4.62798 4.53636
rclavicle 1.51076e-014 -6.36111e-015
rhumerus -42.3574 -8.40721 -74.7773
rradius 38.7104
rwrist -5.11364
rhand -8.34689 -54.3003
rfingers 7.12502
rthumb 17.575 -83.526
lclavicle 1.51076e-014 -6.36111e-015
lhumerus -22.4062 -17.5424 77.6622
lradius 44.7971
lwrist 4.92813
lhand -25.7321 -15.3108
lfingers 7.12502
lthumb 0.804519 14.6674
rfemur -58.7516 -2.69176 5.32202
rtibia 27.7945
rfoot -8.96669 -7.46141
rtoes -27.9901
lfemur -15.8687 -13.7639 -10.2577
ltibia 26.9821
lfoot 11.0149 2.35826
ltoes -24.7634
404
root 2.88719 17.4999 11.9461 -145.084 -10.5581 172.411
lowerback -15.4346 -5.16143 -5.79596
upperback 2.1292 -5.82541 -0.106028
thorax 11.6137 -3.14188 1.64887
lowerneck 11.6212 -5.56245 -6.89312
upperneck 8.10521 -9.80549 10.3308
head 1.36448 -5.45833 4.39288
rclavicle -6.75868e-015 -8.34896e-015
rhumerus -42.017 -8.50103 -74.6806
rradius 39.0419
rwrist -5.24066
rhand -8.25206 -54.1632
rfingers 7.12502
rthumb 17.6663 -83.3806
lclavicle -6.75868e-015 -8.34896e-015
lhumerus -22.1138 -17.8574 77.6045
lradius 45.2765
lwrist 4.95912
lhand -26.1133 -15.3713
lfingers 7.12502
lthumb 0.436296 14.608
rfemur -58.3925 -2.50713 5.19737
rtibia 27.1307
rfoot -9.01536 -7.6166
rtoes -26.8238
lfemur -16.6955 -13.5631 -10.4006
ltibia 27.9032
lfoot 10.1987 2.1937
ltoes -23.7869
405
root 2.91895 17.5363 11.8879 -144.811 -10.4277 172.197
lowerback -15.4479 -5.09201 -5.8577
upperback 2.17564 -5.71632 -0.130821
thorax 11.6686 -3.09495 1.68187
lowerneck 11.1457 -5.61156 -6.70309
upperneck 8.47364 -9.84583 10.0377
head 1.53062 -5.4554 4.24555
rclavicle 5.52621e-014 -3.57812e-015
rhumerus -41.5372 -8.68224 -74.6421
rradius 39.4413
rwrist -5.40345
rhand -8.07532 -54.1537
rfingers 7.12502
rthumb 17.8364 -83.3558
lclavicle 5.52621e-014 -3.57812e-015
lhumerus -21.6926 -18.1891 77.555
lradius 45.7005
lwrist 5.16005
lhand -26.576 -16.3448
lfingers 7.12502
lthumb -0.0106123 13.6349
rfemur -58.1804 -2.28157 4.89956
rtibia 26.6503
rfoot -9.10543 -7.72937
rtoes -25.5628
lfemur -17.517 -13.294 -10.7559
ltibia 28.8202
lfoot 9.42179 1.64165
ltoes -24.3131
406
root 2.9479 17.572 11.8297 -144.615 -10.2462 171.935
lowerback -15.4314 -5.07082 -5.9503
upperback 2.20751 -5.66752 -0.179318
thorax 11.6955 -3.07778 1.69265
lowerneck 10.994 -5.53172 -6.85813
upperneck 8.55857 -9.76406 10.1862
head 1.58454 -5.4134 4.30767
rclavicle 2.98177e-014 3.12092e-014
rhumerus -40.9605 -8.72147 -74.6762
rradius 39.6994
rwrist -5.55414
rhand -7.97611 -53.7165
rfingers 7.12502
rthumb 17.9318 -82.9099
lclavicle 2.98177e-014 3.12092e-014
lhumerus -21.2969 -18.3825 77.4824
lradius 45.9778
lwrist 5.60849
lhand -26.4215 -16.7795
lfingers 7.12502
lthumb 0.138678 13.2002
rfemur -57.8809 -1.91225 4.41826
rtibia 26.1365
rfoot -9.1494 -7.99606
rtoes -24.6581
lfemur -18.2585 -13.1097 -11.2336
ltibia 29.7439
lfoot 8.47675 1.05951
ltoes -26.1873
407
root 2.97389 17.6072 11.7731 -144.377 -10.1272 171.737
lowerback -15.5431 -4.77174 -5.94587
upperback 1.80723 -5.2572 -0.474846
thorax 11.2375 -2.8679 1.49153
lowerneck 12.5938 -5.65794 -6.18663
upperneck 8.16988 -10.0035 10.3632
head 1.22042 -5.59744 4.33401
rclavicle -7.15625e-015 -5.56597e-015
rhumerus -41.863 -9.36861 -74.5311
rradius 40.1231
rwrist -5.60031
rhand -7.43711 -52.6447
rfingers 7.12502
rthumb 18.4504 -81.7897
lclavicle -7.15625e-015 -5.56597e-015
lhumerus -21.8623 -19.8371 77.5147
lradius 46.381
lwrist 6.10648
lhand -26.2181 -15.4518
lfingers 7.12502
lthumb 0.335137 14.5277
rfemur -57.5665 -1.58978 4.03518
rtibia 25.5134
rfoot -9.11083 -8.28396
rtoes -23.4152
lfemur -19.1512 -13.0391 -11.6274
ltibia 30.8414
lfoot 7.33423 0.719499
ltoes -27.6985
408
root 3.00097 17.6421 11.719 -144.145 -10.078 171.598
lowerback -15.3623 -5.09975 -5.907
upperback 1.99989 -5.7311 -0.12433
thorax 11.4265 -3.10178 1.72893
lowerneck 11.1598 -5.33159 -7.17115
upperneck 8.61427 -9.55739 10.1941
head 1.57034 -5.33066 4.36738
rclavicle 1.91827e-014 -2.79292e-014
rhumerus -40.1773 -8.32597 -74.4991
rradius 40.0575
rwrist -5.90587
rhand -7.04559 -52.6501
rfingers 7.12502
rthumb 18.827 -81.759
lclavicle 1.91827e-014 -2.79292e-014
lhumerus -21.285 -18.5656 77.5245
lradius 46.6857
lwrist 6.23539
lhand -23.0633 -10.8637
lfingers 7.12502
lthumb 3.38201 19.0892
rfemur -57.2621 -1.32028 3.81063
rtibia 24.9432
rfoot -9.09801 -8.5602
rtoes -23.2117
lfemur -20.1409 -12.9945 -11.936
ltibia 32.0886
lfoot 6.20662 0.58209
ltoes -28.7819
409
root 3.02661 17.6755 11.6642 -143.983 -10.0566 171.516
lowerback -15.4715 -5.008 -5.81789
upperback 1.97676 -5.61627 -0.144628
thorax 11.4415 -3.04052 1.68125
lowerneck 11.5259 -5.32388 -7.00259
upperneck 8.28593 -9.49965 10.1537
head 1.40256 -5.30696 4.34999
rclavicle -5.86415e-015 -1.93815e-014
rhumerus -39.8697 -8.62282 -74.413
rradius 40.3311
rwrist -6.36117
rhand -7.54229 -53.3124
rfingers 7.12502
rthumb 18.3492 -82.467
lclavicle -5.86415e-015 -1.93815e-014
lhumerus -21.2718 -18.8489 77.5302
lradius 47.1216
lwrist 6.39476
lhand -25.0092 -15.0199
lfingers 7.12502
lthumb 1.5027 14.9545
rfemur -56.9299 -0.947869 3.59432
rtibia 24.4311
rfoot -9.16834 -8.85794
rtoes -23.353
lfemur -21.1048 -12.9382 -12.1976
ltibia 33.2958
lfoot 5.2381 0.527132
ltoes -29.6496
410
root 3.04883 17.7074 11.6041 -143.826 -10.0746 171.472
lowerback -15.6682 -4.98253 -5.62112
upperback 2.18251 -5.60201 -0.0858256
thorax 11.7742 -3.02619 1.614
lowerneck 10.6608 -5.38921 -7.42671
upperneck 8.67777 -9.63359 10.5294
head 1.69806 -5.34732 4.48739
rclavicle 3.46382e-014 3.3694e-014
rhumerus -39.0543 -9.00934 -74.3292
rradius 40.7147
rwrist -6.54398
rhand -8.46669 -53.2288
rfingers 7.12502
rthumb 17.4597 -82.4647
lclavicle 3.46382e-014 3.3694e-014
lhumerus -20.7941 -18.8276 77.3857
lradius 47.3975
lwrist 6.43379
lhand -25.776 -16.6691
lfingers 7.12502
lthumb 0.762096 13.3093
rfemur -56.5007 -0.655703 3.48173
rtibia 23.7657
rfoot -9.15459 -9.05176
rtoes -22.6383
lfemur -22.0524 -12.8591 -12.4451
ltibia 34.4812
lfoot 4.32692 0.485395
ltoes -31.2348
411
root 3.071 17.7349 11.5429 -143.665 -10.1544 171.399
lowerback -15.8037 -4.86285 -5.42455
upperback 2.21159 -5.46492 -0.137739
thorax 11.8481 -2.94686 1.47407
lowerneck 10.5076 -5.50627 -7.19272
upperneck 8.73792 -9.76396 10.5224
head 1.74136 -5.39806 4.43911
rclavicle -2.31087e-014 -6.5102e-015
rhumerus -38.8109 -9.55906 -74.239
rradius 41.2112
rwrist -6.59319
rhand -8.6921 -53.3686
rfingers 7.12502
rthumb 17.2428 -82.6236
lclavicle -2.31087e-014 -6.5102e-015
lhumerus -20.6047 -19.4659 77.2756
lradius 47.5679
lwrist 6.47436
lhand -27.9036 -18.5715
lfingers 7.12502
lthumb -1.29281 11.4043
rfemur -56.0084 -0.472167 3.4183
rtibia 23.0409
rfoot -9.07097 -9.24148
rtoes -22.1358
lfemur -23.0528 -12.8817 -12.7025
ltibia 35.818
lfoot 3.27893 0.583975
ltoes -32.2537
